<svg xmlns:ev="http://www.w3.org/2001/xml-events" xmlns="http://www.w3.org/2000/svg" width="1133" height="804" viewBox="0 0 1133 804" xmlns:xlink="http://www.w3.org/1999/xlink"><style type="text/css"><![CDATA[
.st1 {fill:#000000;font-family:Arial;font-size:10pt}
.st2 {fill:#1f6391;font-family:宋体;font-size:10pt;font-weight:bold}
]]></style><defs/><g id="page1" transform="translate(5,5)"><rect stroke="#808080" width="1123" x="0" height="794" y="0" fill="#ffffff"/><path id="shape1" d="M0,0L482,0L482,147L0,147L0,0z" stroke="#e8eff8" transform="translate(295,369)" stroke-dasharray="11,5" fill="#eeeeee"/><g id="shape2" transform="translate(321,422.5)"><path d="M0,0L110.4,0L110.4,40.5L0,40.5L0,0z" stroke="#7eccb6" fill="#7eccb6"/><text class="st1"><tspan x="29" y="24.3">Logstash</tspan></text></g><g id="shape3" transform="translate(484.5,422.5)"><path d="M0,0L103,0L103,40L0,40L0,0z" stroke="#7eccb6" fill="#7eccb6"/><text class="st1"><tspan x="12" y="24">Elasticsearch</tspan></text></g><g id="shape4" transform="translate(640.64,422.5)"><path d="M0,0L107,0L107,40L0,40L0,0z" stroke="#7eccb6" fill="#7eccb6"/><text class="st1"><tspan x="32.8" y="24">Kibana</tspan></text></g><g id="shape5" transform="translate(491,488)"><text class="st2"><tspan x="8.8" y="19.2">ELK Stack</tspan></text></g><g id="shape6" transform="translate(431.36,442.75)"><path d="M0,0L48.7,0" stroke="#236ea1" fill="none"/><path d="M53.1,0L47.9,-3C48.5,-2.1,48.7,-1.1,48.7,0C48.7,1.1,48.5,2.1,47.9,3L53.1,0" stroke="#236ea1" stroke-width="1" fill="#236ea1" stroke-linecap="round"/></g><g id="shape7" transform="translate(587.5,442.5)"><path d="M0,0L48.7,0" stroke="#236ea1" fill="none"/><path d="M53.1,0L47.9,-3C48.5,-2.1,48.7,-1.1,48.7,0C48.7,1.1,48.5,2.1,47.9,3L53.1,0" stroke="#236ea1" stroke-width="1" fill="#236ea1" stroke-linecap="round"/></g></g></svg>